<svg width="144" height="24" viewBox="0 0 144 24" fill="none" xmlns="http://www.w3.org/2000/svg">
<g clip-path="url(#clip0_16:1864)">
<path fill-rule="evenodd" clip-rule="evenodd" d="M5.74349 11.646C5.74349 11.0646 6.26342 10.7408 7.10703 10.7408C8.17926 10.7408 8.82662 11.3221 9.28184 12.1609L13.4372 9.93416C12.0737 7.643 9.73705 6.48236 7.10703 6.48236C3.73256 6.48236 0.746513 8.25656 0.746513 11.7747C0.746513 17.3567 8.72957 16.4213 8.72957 18.1955C8.72957 18.8412 8.14689 19.2012 6.97755 19.2012C5.54928 19.2012 4.64092 18.5234 4.2181 17.2963L0 19.68C1.26644 22.2949 3.73256 23.52 6.97755 23.52C10.4835 23.52 13.7286 21.9389 13.7286 18.2276C13.7286 12.2575 5.74349 13.4845 5.74349 11.646ZM25.1852 11.5816V6.93297H21.8491V2.41708L16.9736 3.86738V6.93297H14.3779V11.5816H16.9736V17.2923C16.9736 21.8021 18.8145 23.7131 25.1852 23.0694V18.6803C23.0428 18.809 21.8411 18.6803 21.8411 17.2923V11.5816H25.1852ZM39.3993 6.93297V8.44963C38.3291 7.22459 36.7389 6.48236 34.5641 6.48236C30.3157 6.48236 26.8077 10.1936 26.8077 15.0012C26.8077 19.8087 30.3117 23.52 34.5641 23.52C36.7389 23.52 38.3291 22.7777 39.3993 21.5527V23.0694H44.2688V6.93297H39.3993ZM35.5372 18.9377C33.2977 18.9377 31.6752 17.4211 31.6752 15.0012C31.6752 12.5813 33.2937 11.0646 35.5372 11.0646C37.7808 11.0646 39.3993 12.5813 39.3993 15.0012C39.3993 17.4211 37.7808 18.9377 35.5372 18.9377ZM52.707 9.80542V6.93297H47.8375V23.0694H52.707V15.7675C52.707 12.5733 55.5615 11.7666 57.5745 12.0885V6.6111C55.5292 6.6111 53.3544 7.643 52.707 9.80542ZM69.8423 11.5816V6.93297H66.498V2.41708L61.6308 3.86738V6.93297H59.0354V11.5816H61.6308V17.2923C61.6308 21.8102 63.4821 23.7131 69.8423 23.0694V18.6803C67.7002 18.809 66.498 18.6803 66.498 17.2923V11.5816H69.8423ZM90.7753 6.93297L88.4385 15.5825L85.9075 6.93297H81.364L78.8331 15.5825L76.4963 6.93297H71.303L76.4963 23.0694H81.038L83.6358 14.452L86.2312 23.0694H90.7753L95.9685 6.93297H90.7753ZM105.056 23.52C106.749 23.5132 108.402 23.0079 109.806 22.0677C111.211 21.1276 112.304 19.7948 112.947 18.2375C113.59 16.6804 113.755 14.9686 113.42 13.3184C113.086 11.6681 112.267 10.1534 111.068 8.9655C109.868 7.7775 108.342 6.9696 106.68 6.64364C105.019 6.31768 103.299 6.48841 101.735 7.13416C100.172 7.77992 98.8353 8.87178 97.8952 10.272C96.9558 11.6721 96.4541 13.3178 96.4541 15.0012C96.4443 16.1254 96.6609 17.2402 97.09 18.2803C97.5191 19.3203 98.1533 20.2647 98.9545 21.0581C99.7551 21.8515 100.708 22.4779 101.756 22.9007C102.803 23.3234 103.925 23.5339 105.056 23.52ZM105.056 18.809C102.946 18.809 101.324 17.2923 101.324 15.0012C101.324 12.7101 102.942 11.1933 105.056 11.1933C107.17 11.1933 108.786 12.7101 108.786 15.0012C108.786 17.2923 107.168 18.809 105.056 18.809ZM121.283 9.80542V6.93297H116.414V23.0694H121.283V15.7675C121.283 12.5733 124.138 11.7666 126.15 12.0885V6.6111C124.105 6.6111 121.932 7.643 121.283 9.80542ZM144 23.0694L137.931 15.0012L143.84 6.93297H138.159L133.29 14.0015V0.47998H128.423V23.0694H133.29V15.9365L138.483 23.0694H144Z" fill="#193765"/>
</g>
<defs>
<clipPath id="clip0_16:1864">
<rect width="144" height="23.04" fill="white" transform="translate(0 0.47998)"/>
</clipPath>
</defs>
</svg>
